<?xml version="1.0" encoding="UTF-8"?>
<svg version="1.1" xmlns="http://www.w3.org/2000/svg" width="538" height="538">
<path d="M0 0 C2.82908206 2.24236902 5.50507991 4.51518228 8 7.125 C9.175625 6.733125 10.35125 6.34125 11.5625 5.9375 C12.37332031 5.66808594 13.18414062 5.39867188 14.01953125 5.12109375 C16.26895449 4.36932058 18.51593815 3.61024219 20.76171875 2.84765625 C22.0911438 2.39843148 23.42057089 1.94921275 24.75 1.5 C25.70628296 1.17286011 25.70628296 1.17286011 26.68188477 0.83911133 C33.69695977 -1.52373564 39.83265866 -2.08353507 47.1875 -2.125 C48.08275391 -2.145625 48.97800781 -2.16625 49.90039062 -2.1875 C58.13495043 -2.23506424 66.00378502 -0.84550296 72.8125 4.0625 C73.54855469 4.59230469 74.28460938 5.12210938 75.04296875 5.66796875 C75.68878906 6.14878906 76.33460938 6.62960938 77 7.125 C77.86625 7.7025 78.7325 8.28 79.625 8.875 C93.4470659 21.96958875 98.40589394 43.95748379 99.1262207 62.34741211 C99.65503998 86.81915385 97.60674929 110.24650937 92 134.125 C92.55042969 134.24875 93.10085938 134.3725 93.66796875 134.5 C127.04646696 142.77993754 167.25669755 161.16674132 186.9375 190.625 C193.7778345 202.07476855 196.76324527 213.90095822 193.875 227 C190.83629094 238.08566082 184.92131123 245.98554594 177 254.125 C176.07767578 255.14013672 176.07767578 255.14013672 175.13671875 256.17578125 C169.00181705 262.73106165 161.06466138 269.09266931 153 273.125 C152.59667356 275.10800761 152.59667356 275.10800761 152.5078125 277.5078125 C152.41330811 278.87728027 152.41330811 278.87728027 152.31689453 280.27441406 C152.25356934 281.25635742 152.19024414 282.23830078 152.125 283.25 C151.39459264 292.64962897 149.97582208 301.14242594 147 310.125 C146.71382813 311.02089844 146.42765625 311.91679687 146.1328125 312.83984375 C140.75579032 327.90026429 129.21378144 340.26740066 116.875 350.0625 C116.32569824 350.49892822 115.77639648 350.93535645 115.21044922 351.38500977 C112.73878746 353.27684052 110.51855177 354.90754281 107.63110352 356.1184082 C105.03428152 357.23614256 103.10098185 358.22368244 101 360.125 C99.53376308 364.16943413 99.38519424 368.16463612 99.1875 372.4375 C98.99565791 374.79358102 98.79645369 377.14907431 98.58984375 379.50390625 C98.49687012 380.64359863 98.40389648 381.78329102 98.30810547 382.95751953 C96.67877566 399.70785625 89.97230733 416.03487667 77 427.125 C73.14613147 429.5964486 69.26455122 431.47285918 65 433.125 C64.33613281 433.38925781 63.67226563 433.65351563 62.98828125 433.92578125 C43.95687373 439.99436456 21.59422051 431.59825836 4.58837891 422.9987793 C-12.9340891 413.84373728 -28.55800548 402.0233004 -43.42016602 389.05908203 C-45.88017744 386.9151894 -48.28028304 384.93814464 -51 383.125 C-51.66902344 383.76824219 -52.33804688 384.41148437 -53.02734375 385.07421875 C-74.86082535 405.61820613 -101.64378408 425.38380608 -131 433.125 C-131.68328369 433.30683838 -132.36656738 433.48867676 -133.07055664 433.67602539 C-138.73196764 435.07356034 -144.11661026 435.47663015 -149.9375 435.4375 C-150.81704346 435.43186035 -151.69658691 435.4262207 -152.6027832 435.42041016 C-163.32635685 435.21944885 -170.41230064 432.51863645 -179 426.125 C-180.299375 425.25875 -180.299375 425.25875 -181.625 424.375 C-192.54659606 414.02822478 -199.58447351 395.50862849 -200.08642578 380.54931641 C-200.10044434 379.6113623 -200.11446289 378.6734082 -200.12890625 377.70703125 C-199.88410882 368.09821654 -199.88410882 368.09821654 -203.27832031 359.5 C-206.54954367 356.9008902 -210.30770416 355.46461573 -214.16796875 353.95117188 C-219.07032402 351.74040825 -223.02792709 347.67451196 -227 344.125 C-227.63292969 343.58617187 -228.26585937 343.04734375 -228.91796875 342.4921875 C-246.60423544 326.38432905 -252.8048098 300.95201161 -255 278.125 C-255.04304708 276.12546332 -255.06586212 274.12391525 -255 272.125 C-255.69996094 271.88523437 -256.39992188 271.64546875 -257.12109375 271.3984375 C-271.9537589 264.83744858 -286.93918026 248.87665811 -293.2734375 234.16796875 C-298.12512689 221.31615325 -298.13749881 210.17321139 -292.8515625 197.3359375 C-288.91478263 189.4396218 -283.19283533 183.28304412 -277 177.125 C-275.80890625 175.93390625 -275.80890625 175.93390625 -274.59375 174.71875 C-253.98962752 155.21351406 -224.87153222 142.26279593 -197.86987305 134.72070312 C-196.00669833 134.2847324 -196.00669833 134.2847324 -195 133.125 C-195.21013542 131.23607555 -195.21013542 131.23607555 -195.70703125 128.99609375 C-195.88065186 128.13387207 -196.05427246 127.27165039 -196.2331543 126.38330078 C-196.42433838 125.45243652 -196.61552246 124.52157227 -196.8125 123.5625 C-203.69972585 88.69831769 -207.50938553 47.77135294 -188 16.125 C-181.38069147 6.62137431 -172.55620188 1.02329311 -161.26171875 -1.40625 C-149.55746477 -3.08829848 -137.2879229 -2.23496874 -126.25390625 2.23828125 C-123.72384229 3.26056919 -121.72814994 3.97444992 -119 4.125 C-116.29609554 2.82879838 -114.21288464 1.18184365 -111.87890625 -0.69921875 C-79.69650256 -25.02160526 -31.76353015 -24.05814531 0 0 Z M-93 18.125 C-89.24301562 21.19953591 -85.34807803 24.02816077 -81.375 26.8125 C-72.04449502 33.42344441 -63.37017581 40.56670604 -55.19140625 48.5703125 C-53.1727134 50.32533409 -53.1727134 50.32533409 -50.9765625 50.1015625 C-48.46910769 48.86270143 -46.82351828 47.32550976 -44.8125 45.375 C-40.18527606 41.07829206 -35.33881666 37.19576263 -30.3125 33.375 C-29.2438269 32.56144043 -29.2438269 32.56144043 -28.15356445 31.73144531 C-24.80740411 29.19997186 -21.43954788 26.7343949 -17.98046875 24.359375 C-16.50513672 23.25335938 -16.50513672 23.25335938 -15 22.125 C-15 21.465 -15 20.805 -15 20.125 C-25.96343867 13.43043937 -25.96343867 13.43043937 -38 9.125 C-38.73605469 8.94453125 -39.47210938 8.7640625 -40.23046875 8.578125 C-58.83732634 5.53384365 -76.12698776 10.75687239 -93 18.125 Z M-165.75 26.3125 C-166.4925 27.240625 -167.235 28.16875 -168 29.125 C-168.41894531 29.64449219 -168.83789062 30.16398437 -169.26953125 30.69921875 C-177.95252471 42.79245133 -178.2539353 59.59357936 -178.3125 73.875 C-178.31644775 74.57165771 -178.32039551 75.26831543 -178.32446289 75.98608398 C-178.3620974 90.30847063 -176.62493591 104.03691312 -174 118.125 C-173.67 118.125 -173.34 118.125 -173 118.125 C-172.81993408 116.97221558 -172.81993408 116.97221558 -172.63623047 115.79614258 C-167.22417784 81.63096931 -158.53887043 51.43533492 -138 23.125 C-147.92254645 20.65825418 -157.26342322 19.56181393 -165.75 26.3125 Z M25 27.125 C25.49628906 27.88941406 25.99257813 28.65382813 26.50390625 29.44140625 C42.59626992 54.81665143 49.3062539 82.49035243 53 112.125 C51.9330188 111.76148438 51.9330188 111.76148438 50.84448242 111.390625 C47.62706072 110.29739015 44.4073303 109.21111939 41.1875 108.125 C39.50817383 107.55265625 39.50817383 107.55265625 37.79492188 106.96875 C36.72177734 106.6078125 35.64863281 106.246875 34.54296875 105.875 C33.55321045 105.53984375 32.56345215 105.2046875 31.54370117 104.859375 C28.96088382 103.98631245 28.96088382 103.98631245 26 104.125 C25.98582031 103.47917969 25.97164063 102.83335937 25.95703125 102.16796875 C24.82321089 79.76735563 15.51762922 57.50920204 3 39.125 C-1.32191074 40.61670427 -4.82859973 42.89809767 -8.5 45.5625 C-9.40770142 46.21532959 -9.40770142 46.21532959 -10.33374023 46.88134766 C-15.83041123 50.892027 -21.02154047 55.2240628 -26.16015625 59.6796875 C-28.72859583 61.89130123 -31.33939575 64.02580766 -34 66.125 C-32.52459329 69.48649364 -30.62080185 71.82135552 -28.125 74.5 C-17.9898231 85.59040923 -8.56332191 97.06922524 0.42944336 109.10546875 C0.94772705 109.77191406 1.46601074 110.43835938 2 111.125 C2.712771 112.15737793 3.42554199 113.18975586 4.15991211 114.25341797 C7.31447715 117.99260109 10.66301719 118.34701917 15.3515625 118.8828125 C16.57182632 119.05561234 16.57182632 119.05561234 17.81674194 119.23190308 C20.41685021 119.59569925 23.01986425 119.92435803 25.625 120.25 C29.01448915 120.70041969 32.40188306 121.16537669 35.7890625 121.6328125 C36.62745667 121.74570618 37.46585083 121.85859985 38.32965088 121.97491455 C45.24346052 122.93660676 52.03768692 124.29336876 58.84121704 125.84890747 C62.638983 126.70389973 66.07585447 127.3520489 70 127.125 C70.69963794 123.19739067 71.39310151 119.26874183 72.08129883 115.33911133 C72.42932953 113.35898598 72.78199225 111.37967653 73.13476562 109.40039062 C77.41397744 84.9034534 81.21046728 51.52984907 66.3671875 29.7265625 C62.06735575 24.38551589 57.99778598 21.55942241 51.16015625 20.81640625 C42.9958086 20.48983234 31.08099724 21.04400276 25 27.125 Z M-114 34.125 C-136.24960637 58.34284078 -144.46934048 90.2253708 -147 122.125 C-143.04441958 121.68433901 -139.09355097 121.22260773 -135.14453125 120.7265625 C-131.60278752 120.28890368 -128.07068358 119.97093599 -124.51171875 119.7109375 C-114.69789075 119.04432309 -114.69789075 119.04432309 -106.01953125 114.94140625 C-103.71026569 112.12532842 -101.86658644 109.25017688 -100 106.125 C-98.41802686 103.9970597 -96.82183489 101.89861515 -95.1875 99.8125 C-94.77540283 99.27334961 -94.36330566 98.73419922 -93.9387207 98.17871094 C-85.89015934 87.66996492 -76.9693167 77.8483743 -68 68.125 C-72.47765717 62.10332311 -78.1064755 57.70472448 -84 53.125 C-84.61907227 52.64160156 -85.23814453 52.15820312 -85.87597656 51.66015625 C-98.86548708 40.20273543 -98.86548708 40.20273543 -114 34.125 Z M-52 84.125 C-54.08873192 86.32843107 -56.17098572 88.5374302 -58.25 90.75 C-59.12978516 91.67619141 -59.12978516 91.67619141 -60.02734375 92.62109375 C-63.44157245 96.26549518 -66.36283865 99.88204238 -69 104.125 C-68.31292969 104.51171875 -67.62585938 104.8984375 -66.91796875 105.296875 C-66.01691406 105.81765625 -65.11585938 106.3384375 -64.1875 106.875 C-63.29417969 107.38546875 -62.40085937 107.8959375 -61.48046875 108.421875 C-59 110.125 -59 110.125 -57.7734375 112.20703125 C-56.07686531 114.44452086 -56.07686531 114.44452086 -52.90551758 114.57910156 C-51.66439209 114.5581543 -50.4232666 114.53720703 -49.14453125 114.515625 C-48.48289474 114.50996521 -47.82125824 114.50430542 -47.13957214 114.49847412 C-45.02980668 114.47611247 -42.92175048 114.42592371 -40.8125 114.375 C-39.38088394 114.3549344 -37.9492412 114.33668372 -36.51757812 114.3203125 C-33.01116485 114.27625069 -29.50574928 114.20722777 -26 114.125 C-27.80058926 110.31258773 -30.19927331 107.30242552 -32.9375 104.125 C-33.41823975 103.56264648 -33.89897949 103.00029297 -34.39428711 102.42089844 C-37.89234174 98.35336664 -41.45267802 94.34356581 -45.0625 90.375 C-45.52712646 89.86195313 -45.99175293 89.34890625 -46.47045898 88.8203125 C-48.94198688 86.10259867 -48.94198688 86.10259867 -52 84.125 Z M-139.25 144.5625 C-140.36761719 144.78389648 -140.36761719 144.78389648 -141.5078125 145.00976562 C-143.34007665 145.3738694 -145.17026053 145.74841409 -147 146.125 C-146.69163058 149.35457498 -146.37757181 152.58357255 -146.0625 155.8125 C-145.93198242 157.18051758 -145.93198242 157.18051758 -145.79882812 158.57617188 C-145.71181641 159.46240234 -145.62480469 160.34863281 -145.53515625 161.26171875 C-145.456604 162.07342529 -145.37805176 162.88513184 -145.29711914 163.72143555 C-144.98788366 166.22301594 -144.52365768 168.66016441 -144 171.125 C-141.26790001 167.82933946 -138.92581359 164.51814124 -136.765625 160.82421875 C-136.19199219 159.84775391 -135.61835938 158.87128906 -135.02734375 157.86523438 C-134.44082031 156.85783203 -133.85429687 155.85042969 -133.25 154.8125 C-132.64800781 153.78576172 -132.04601562 152.75902344 -131.42578125 151.70117188 C-129.94698173 149.17782349 -128.47185412 146.65240377 -127 144.125 C-131.30422506 142.81447233 -134.9370534 143.66714448 -139.25 144.5625 Z M-57.49926758 150.84472656 C-60.69252126 155.69668514 -65.42214534 158.34119284 -70.890625 160.00390625 C-79.84328279 161.82887111 -87.16020824 161.23420717 -94.875 156.1875 C-96.26384497 155.18558416 -97.63957098 154.16517238 -99 153.125 C-100.33278201 152.12426533 -101.66604147 151.12416586 -103 150.125 C-108.01318052 157.05400947 -112.53761774 164.15754471 -116.8125 171.5625 C-117.41199463 172.60003418 -118.01148926 173.63756836 -118.62915039 174.70654297 C-120.42976061 177.84027191 -122.21753664 180.98091878 -124 184.125 C-124.53786133 185.06907715 -125.07572266 186.0131543 -125.62988281 186.98583984 C-127.08695388 189.56284299 -128.5175149 192.15241591 -129.9375 194.75 C-130.36844971 195.5123999 -130.79939941 196.2747998 -131.2434082 197.06030273 C-132.98142133 200.30896304 -134.0026733 202.43261402 -133.98828125 206.16015625 C-132.72585625 209.94743124 -131.09873274 213.40446911 -129.25 216.9375 C-128.88293945 217.6394751 -128.51587891 218.3414502 -128.13769531 219.06469727 C-127.41101775 220.45375457 -126.68287304 221.84204551 -125.953125 223.22949219 C-125.15006814 224.82655506 -124.4525604 226.47605287 -123.78125 228.1328125 C-122.73340591 230.60159667 -121.96068788 232.28956491 -120 234.125 C-116.99574043 234.79211576 -114.21563507 234.87595433 -111.140625 234.90625 C-104.83312629 235.34557827 -99.85526946 238.55205415 -95.125 242.5625 C-88.94284587 250.01745057 -86.46594804 256.60762153 -86.69140625 266.2890625 C-87.55380827 274.21442794 -91.01760691 279.81465388 -96.609375 285.3359375 C-98.4091346 287.27369827 -98.4091346 287.27369827 -98 291.125 C-97.34 292.115 -96.68 293.105 -96 294.125 C-89.10734286 295.43090363 -82.08365413 295.68447344 -75.08428955 296.02233887 C-73.6229318 296.09431766 -72.16180036 296.17097203 -70.7008667 296.25109863 C-65.58619523 296.53017641 -60.4753459 296.73428074 -55.35458374 296.86099243 C-53.63193426 296.91159389 -51.9097233 296.98093998 -50.18862915 297.06991577 C-39.79394364 297.80766394 -39.79394364 297.80766394 -30.55175781 293.81420898 C-27.69727612 291.1786165 -25.34387266 288.22152081 -23 285.125 C-21.42034642 283.26769738 -19.83752815 281.41307635 -18.25 279.5625 C-12.47457297 272.2996184 -7.29548049 264.82606126 -2.625 256.8125 C-2.10570923 255.9321106 -2.10570923 255.9321106 -1.57592773 255.03393555 C0.27833713 251.78026057 1.78859417 248.89827378 2 245.125 C1.11456665 243.27755095 1.11456665 243.27755095 -0.3125 241.625 C-3.99415201 236.30705821 -4.3563458 230.42704713 -5 224.125 C-5.33 224.125 -5.66 224.125 -6 224.125 C-6.21914063 224.95902344 -6.43828125 225.79304688 -6.6640625 226.65234375 C-8.7606855 234.09279854 -11.12631183 240.10107399 -16 246.125 C-16.47824219 246.73859375 -16.95648438 247.3521875 -17.44921875 247.984375 C-25.23703127 256.85110361 -37.55954338 261.31116753 -49.0390625 262.30078125 C-61.41405137 262.76915732 -73.35103397 258.10906943 -82.5 249.875 C-93.36141944 237.92743861 -96.86828412 226.21989861 -96.17919922 210.2578125 C-95.12938813 197.76305817 -87.71609188 188.11502789 -78.6875 180.0625 C-68.50535753 172.72188566 -56.42665109 169.68227 -43.98828125 171.5859375 C-31.74644191 174.04879275 -21.79907085 179.18649532 -14 189.125 C-8.28877635 198.42718616 -5.9471472 207.35743186 -5 218.125 C-3.04234045 215.30160933 -3.04234045 215.30160933 -1.80859375 212.85546875 C2.40171443 205.04660658 7.20127069 200.92452349 15.5 197.8125 C19.65362754 196.99660888 23.78476722 196.48821734 28 196.125 C22.44610573 184.42915207 16.13239064 173.34934207 9.32763672 162.33789062 C8.17930306 160.42386042 7.11856482 158.49936481 6.09765625 156.515625 C3.99335545 152.62601277 2.48533329 149.84955282 -1.5625 147.875 C-4.71216396 147.00381635 -7.75814795 146.52927802 -11 146.125 C-12.05445313 145.92648438 -13.10890625 145.72796875 -14.1953125 145.5234375 C-22.55605603 144.09506446 -31.03328096 143.71219486 -39.5 143.4375 C-40.62229004 143.36958252 -41.74458008 143.30166504 -42.90087891 143.23168945 C-50.41375387 143.10266228 -53.50016351 144.38123482 -57.49926758 150.84472656 Z M-263.5 196.25 C-269.14258376 202.19018839 -273.65012367 208.69997799 -274 217.125 C-272.66693248 227.82328869 -264.96764308 236.35074839 -257 243.125 C-255.35205442 244.15555963 -253.68862428 245.16254179 -252 246.125 C-251.79955078 245.50681396 -251.59910156 244.88862793 -251.39257812 244.25170898 C-243.39784149 219.83467747 -232.8772933 200.62340771 -215 182.125 C-214.31164062 181.39667969 -213.62328125 180.66835937 -212.9140625 179.91796875 C-199.86093598 166.41197866 -199.86093598 166.41197866 -193 164.125 C-192.9175 165.300625 -192.835 166.47625 -192.75 167.6875 C-192.12396088 173.55544879 -190.4592288 179.1160909 -188.83984375 184.76953125 C-188 188.125 -188 188.125 -188 192.125 C-189.57421875 193.90625 -189.57421875 193.90625 -191.6875 195.625 C-192.42226562 196.23472656 -193.15703125 196.84445313 -193.9140625 197.47265625 C-195.44867592 198.68827699 -197.00088507 199.88176676 -198.5625 201.0625 C-213.59372111 213.78122556 -226.01173386 234.86587274 -230 254.125 C-230.05566288 256.12422526 -230.07117151 258.12626675 -230 260.125 C-221.24080296 264.99818476 -212.2387221 268.67057267 -202.8125 272.0625 C-201.14586304 272.6646936 -201.14586304 272.6646936 -199.44555664 273.27905273 C-193.85346945 275.39402314 -193.85346945 275.39402314 -188 276.125 C-187.65332275 275.11937012 -187.30664551 274.11374023 -186.94946289 273.07763672 C-185.62461709 269.23942285 -184.28945577 265.40484314 -182.9536438 261.57043457 C-182.06245472 258.99986941 -181.18307514 256.42546645 -180.30444336 253.85058594 C-175.32649952 239.39907239 -175.32649952 239.39907239 -171.78125 232.6484375 C-166.44342553 222.54316676 -166.44342553 222.54316676 -167.2578125 211.47265625 C-169.25103776 206.10364458 -171.78944401 201.02082853 -174.30517578 195.88183594 C-177.37903152 189.30937833 -179.5327241 182.3480939 -181.82192993 175.47372437 C-182.61923293 173.07981567 -183.42651199 170.689502 -184.23706055 168.30004883 C-185.49892121 164.57753335 -186.75210092 160.85221798 -188 157.125 C-212.97354393 157.125 -245.95929294 179.49616578 -263.5 196.25 Z M86 157.125 C86 158.115 86 159.105 86 160.125 C87.81769286 161.89356894 87.81769286 161.89356894 90.25 163.625 C118.24465911 185.26262087 138.33665844 212.90540224 148 247.125 C157.15849823 243.10368238 165.92806982 233.65027452 170.1640625 224.65234375 C172.26572126 218.74028629 172.499258 213.92684893 170 208.125 C155.18194142 182.03056167 123.35574012 169.24259073 96.5 159.625 C95.78787354 159.36952393 95.07574707 159.11404785 94.34204102 158.85083008 C91.4285854 157.83815064 89.10807936 157.125 86 157.125 Z M37 162.125 C38.49478727 167.2799961 40.78364647 171.62826477 43.4375 176.25 C43.83259766 176.95253906 44.22769531 177.65507812 44.63476562 178.37890625 C46.57477746 181.79410179 48.5285046 185.05748481 51 188.125 C51.86762314 185.87938718 52.7192103 183.62973745 53.5625 181.375 C53.80935547 180.74078125 54.05621094 180.1065625 54.31054688 179.453125 C55.61362957 175.92929575 56.41269576 173.65831357 55 170.125 C52.54497402 168.51956535 50.22942071 167.18205129 47.625 165.875 C46.93921875 165.51148438 46.2534375 165.14796875 45.546875 164.7734375 C41.48572666 162.66983758 41.48572666 162.66983758 37 162.125 Z M76 186.125 C74.44825134 189.89554721 72.90010076 193.66754953 71.35522461 197.44091797 C70.82951198 198.72354668 70.30282935 200.00577826 69.77514648 201.28759766 C69.01549577 203.13338423 68.25965563 204.98073762 67.50390625 206.828125 C66.82050171 208.49343262 66.82050171 208.49343262 66.12329102 210.19238281 C64.17784033 215.27144249 63.69145295 217.19176742 65.921875 222.296875 C66.3655542 223.33932373 66.8092334 224.38177246 67.26635742 225.45581055 C67.75595947 226.58414307 68.24556152 227.71247559 68.75 228.875 C73.32748701 239.72043391 77.41038642 250.66320397 81.1875 261.8125 C81.43101196 262.53038696 81.67452393 263.24827393 81.92541504 263.98791504 C83.29430243 268.03006616 84.6521028 272.07579231 86 276.125 C92.77733565 274.78329396 99.00351748 272.81172803 105.4375 270.3125 C106.75331055 269.8165332 106.75331055 269.8165332 108.09570312 269.31054688 C114.26259913 266.94285873 120.14341861 264.17728741 126 261.125 C121.28388861 238.84377984 110.5894421 218.68085085 95 202.125 C94.41573242 201.50367188 93.83146484 200.88234375 93.22949219 200.2421875 C91.37690168 198.29147867 89.50654241 196.36027832 87.625 194.4375 C87.04202148 193.83655518 86.45904297 193.23561035 85.85839844 192.61645508 C85.01970215 191.77957153 85.01970215 191.77957153 84.1640625 190.92578125 C83.67373535 190.43247314 83.1834082 189.93916504 82.67822266 189.4309082 C80.59912744 187.8130612 78.4684282 187.00949829 76 186.125 Z M-153 245.125 C-154.44204472 249.08169215 -155.87778926 253.04064323 -157.3125 257 C-157.71662109 258.10859375 -158.12074219 259.2171875 -158.53710938 260.359375 C-163.06356763 271.46701958 -163.06356763 271.46701958 -165 283.125 C-161.56536114 283.94991326 -158.12686557 284.7575421 -154.6875 285.5625 C-153.73037109 285.79259766 -152.77324219 286.02269531 -151.78710938 286.25976562 C-145.19977618 287.79015617 -138.74802588 288.6898832 -132 289.125 C-132.886875 288.155625 -133.77375 287.18625 -134.6875 286.1875 C-139.97475932 279.91278563 -143.00499631 274.71179037 -143.875 266.4375 C-144.7615705 258.30764856 -148.02159883 252.12443308 -152 245.125 C-152.33 245.125 -152.66 245.125 -153 245.125 Z M50 245.125 C49.6690332 245.74729492 49.33806641 246.36958984 48.99707031 247.01074219 C41.38089418 261.29434849 33.48297217 275.33756773 25 289.125 C28.88642166 290.54835937 32.03821919 289.75806166 36.03125 288.98046875 C36.70418091 288.85062088 37.37711182 288.72077301 38.07043457 288.58699036 C39.48998166 288.31104619 40.90871709 288.03089763 42.32666016 287.74682617 C44.49052446 287.31439362 46.65695201 286.89742517 48.82421875 286.48242188 C56.69115381 285.14671577 56.69115381 285.14671577 64 282.125 C62.6347278 277.97939789 61.26535956 273.83517744 59.89233398 269.69213867 C59.42671311 268.28527657 58.96217418 266.87805586 58.4987793 265.47045898 C57.82891897 263.43636211 57.15505699 261.40362685 56.48046875 259.37109375 C56.07723389 258.15091553 55.67399902 256.9307373 55.25854492 255.67358398 C53.98131871 252.07232636 52.54221832 248.61899653 51 245.125 C50.67 245.125 50.34 245.125 50 245.125 Z M-230 286.125 C-225.03573971 304.68701672 -216.43404296 320.24824575 -201 332.125 C-200.34 332.125 -199.68 332.125 -199 332.125 C-198.28480153 327.90799198 -197.57280664 323.69045938 -196.86376953 319.47241211 C-196.62213611 318.03769338 -196.37962942 316.60312144 -196.13623047 315.16870117 C-195.78643532 313.10633751 -195.43978872 311.04346558 -195.09375 308.98046875 C-194.88427734 307.73934326 -194.67480469 306.49821777 -194.45898438 305.21948242 C-193.92664082 302.15180023 -193.92664082 302.15180023 -194 299.125 C-194.71019287 298.87331055 -195.42038574 298.62162109 -196.15209961 298.36230469 C-199.41521155 297.20352688 -202.67635573 296.03930333 -205.9375 294.875 C-207.61295898 294.28138672 -207.61295898 294.28138672 -209.32226562 293.67578125 C-215.09665998 291.6098689 -220.74922111 289.45634209 -226.29516602 286.83300781 C-228.00017461 285.99715494 -228.00017461 285.99715494 -230 286.125 Z M117.375 289.75 C109.30790869 293.03405417 101.16668625 296.09871153 93 299.125 C93.63867975 306.74010985 94.76805861 314.22119955 96.0625 321.75 C96.24876953 322.84957031 96.43503906 323.94914062 96.62695312 325.08203125 C97.08164456 327.76354486 97.53937904 330.44449973 98 333.125 C111.49595808 321.79730786 121.88463025 308.61532146 126 291.125 C126 289.805 126 288.485 126 287.125 C122.88127312 287.125 120.22007768 288.57503954 117.375 289.75 Z M-172 306.125 C-172.71978137 310.12552952 -173.43155655 314.12739624 -174.13623047 318.13061523 C-174.37659457 319.48972099 -174.61906945 320.84845533 -174.86376953 322.20678711 C-175.21693847 324.16939734 -175.56166482 326.13352075 -175.90625 328.09765625 C-176.11572266 329.27593994 -176.32519531 330.45422363 -176.54101562 331.66821289 C-177.00939198 335.19573463 -177.07937637 338.57092304 -177 342.125 C-155.22144832 352.05468448 -123.65986461 345.63404582 -102 338.125 C-99.63694785 337.17933096 -97.3227297 336.16810576 -95 335.125 C-97.35185906 331.05506209 -99.96001552 327.21596058 -102.75 323.4375 C-103.15476562 322.85677734 -103.55953125 322.27605469 -103.9765625 321.67773438 C-107.96868919 316.31563874 -112.17183972 315.62484812 -118.52246094 314.50244141 C-119.74739258 314.32890137 -120.97232422 314.15536133 -122.234375 313.9765625 C-123.61883628 313.77578075 -125.00327559 313.57484741 -126.38769531 313.3737793 C-127.10107056 313.27189301 -127.8144458 313.17000671 -128.54943848 313.06503296 C-139.60409035 311.48244613 -150.59456047 309.82755305 -161.47949219 307.29345703 C-165.08235374 306.46315728 -168.31126703 306.05436637 -172 306.125 Z M63.71875 306.26171875 C61.312648 306.77933426 58.9063849 307.29620125 56.5 307.8125 C55.22092773 308.08940674 53.94185547 308.36631348 52.62402344 308.65161133 C45.45415683 310.16952503 38.32815904 311.40454684 31.046875 312.25 C29.56443101 312.43251903 28.08200894 312.61521618 26.59960938 312.7980957 C24.44395384 313.06202717 22.29346546 313.30864865 20.13012695 313.50033569 C11.53841538 314.25520191 11.53841538 314.25520191 4.21972656 318.53271484 C1.93525269 321.29934134 -0.05952853 324.10974385 -2 327.125 C-2.85794548 328.26422692 -3.72533545 329.39652603 -4.609375 330.515625 C-5.31578125 331.45921875 -6.0221875 332.4028125 -6.75 333.375 C-15.18466081 344.48319987 -24.61521807 354.81871494 -34 365.125 C-29.72894791 370.77699272 -24.53216137 374.76043048 -19 379.125 C-17.99453125 379.93453125 -16.9890625 380.7440625 -15.953125 381.578125 C2.79230306 396.51027481 27.12062507 412.93067924 52 412.125 C58.07840521 411.10893522 62.09820758 409.00224053 66 404.125 C66.41894531 403.60550781 66.83789062 403.08601563 67.26953125 402.55078125 C73.7988387 393.45709323 75.54500226 381.06769576 76 370.125 C74.989375 370.24875 73.97875 370.3725 72.9375 370.5 C72.19757813 370.58894531 71.45765625 370.67789063 70.6953125 370.76953125 C68.74807809 371.02634043 66.80559481 371.32009611 64.8671875 371.63671875 C34.08551499 376.40618669 5.3366118 370.23246141 -23 358.125 C-23 357.465 -23 356.805 -23 356.125 C-20.84751723 354.29792725 -18.68687446 352.57526995 -16.4375 350.875 C-12.45877284 347.83476003 -8.57862918 344.82106869 -4.9375 341.375 C-2 339.125 -2 339.125 0.11328125 339.3046875 C3.29162584 340.20787067 6.43850844 341.18739269 9.58520508 342.19482422 C29.14684653 348.39633278 56.50545434 354.87227283 76 345.125 C74.82503348 331.5974249 72.74283011 318.42193695 70 305.125 C67.89615751 305.125 65.75791113 305.81388557 63.71875 306.26171875 Z M-77 319.125 C-76.01 320.445 -75.02 321.765 -74 323.125 C-70.30706264 322.4655469 -69.29427421 321.59570566 -66 319.125 C-69.63 319.125 -73.26 319.125 -77 319.125 Z M-42 337.125 C-44.72251648 338.4634562 -44.72251648 338.4634562 -47.625 340.375 C-48.62789062 340.99890625 -49.63078125 341.6228125 -50.6640625 342.265625 C-51.43492187 342.87921875 -52.20578125 343.4928125 -53 344.125 C-53 345.115 -53 346.105 -53 347.125 C-51.515 348.115 -51.515 348.115 -50 349.125 C-46.7 345.495 -43.4 341.865 -40 338.125 C-40.66 337.795 -41.32 337.465 -42 337.125 Z M-83.2578125 357.91796875 C-104.28028308 365.26907007 -125.4420404 371.33194563 -147.875 371.3125 C-149.06863159 371.3134668 -149.06863159 371.3134668 -150.28637695 371.31445312 C-159.58193876 371.23477947 -168.77687519 370.21350367 -178 369.125 C-176.42868601 384.07315811 -174.26143577 399.95698009 -162 410.125 C-149.53927562 415.08831799 -136.8510895 411.39806361 -124.96875 406.5 C-105.3545303 397.98860074 -87.66641975 384.62598837 -72.14453125 370.05859375 C-70 368.125 -70 368.125 -68 367.125 C-69.35236577 364.18620516 -70.89942659 361.83267089 -73 359.375 C-73.7734375 358.45460938 -73.7734375 358.45460938 -74.5625 357.515625 C-77.29405799 354.87313956 -80.03332531 356.76789986 -83.2578125 357.91796875 Z " fill="#61D9FA" transform="translate(320,51.875)"/>
<path d="M0 0 C1.03827296 3.89139873 2.05252176 7.78867049 3.0625 11.6875 C3.35705078 12.79029297 3.65160156 13.89308594 3.95507812 15.02929688 C4.22900391 16.09599609 4.50292969 17.16269531 4.78515625 18.26171875 C5.17006226 19.73064575 5.17006226 19.73064575 5.56274414 21.22924805 C6.02915667 24.18475657 5.86012518 26.14742123 5 29 C3.328125 30.84375 3.328125 30.84375 1.25 32.5 C0.52425781 33.098125 -0.20148438 33.69625 -0.94921875 34.3125 C-1.62597656 34.869375 -2.30273438 35.42625 -3 36 C-4.68711423 37.6459651 -6.3545622 39.31237149 -8 41 C-8.49757812 41.44085938 -8.99515625 41.88171875 -9.5078125 42.3359375 C-22.91655616 54.62208867 -31.19007904 72.8575329 -36 90 C-36.35578125 90.92167969 -36.7115625 91.84335937 -37.078125 92.79296875 C-42.2096916 110.64473221 -35.55675079 129.73774672 -27.1015625 145.40234375 C-22.26483857 153.92131965 -14.9540541 163.52297295 -6 168 C-6 168.66 -6 169.32 -6 170 C-4.92685547 170.41958984 -4.92685547 170.41958984 -3.83203125 170.84765625 C-2.02032792 171.58483209 -0.22345819 172.36032491 1.55078125 173.18359375 C12.67856352 178.23595317 24.81691229 180.39084561 37 181 C38.58554688 181.07927734 38.58554688 181.07927734 40.203125 181.16015625 C72.44704625 181.96276468 101.99493143 170.78933539 129 154 C129.845625 153.49210938 130.69125 152.98421875 131.5625 152.4609375 C149.58838988 141.4043597 165.26640643 126.87396448 178 110 C178.59941406 109.2059375 179.19882812 108.411875 179.81640625 107.59375 C183.29683815 102.79745011 186.39330115 97.80346751 189.375 92.6875 C189.89429077 91.8071106 189.89429077 91.8071106 190.42407227 90.90893555 C192.27960393 87.65303772 193.79027109 84.77512035 194 81 C193.12513658 78.98300491 193.12513658 78.98300491 191.6875 77.1875 C188.94378583 73.18625016 187.93154534 69.74241263 187 65 C186.78085937 65.6290625 186.56171875 66.258125 186.3359375 66.90625 C184.03652561 73.11279267 181.30982119 77.98760455 177 83 C176.28263672 83.89332031 176.28263672 83.89332031 175.55078125 84.8046875 C167.7037014 93.6993624 155.52062353 98.17925659 143.9609375 99.17578125 C132.58158944 99.60647371 122.10717549 95.62340036 113 89 C112.195625 88.46375 111.39125 87.9275 110.5625 87.375 C102.26965181 79.68894558 96.49432166 68.6498303 95.76171875 57.3125 C95.4169124 43.95513671 97.82708222 33.84483321 106 23 C106.5775 22.13375 107.155 21.2675 107.75 20.375 C116.94054167 10.67387268 128.56279814 6.65084151 141.625 5.75 C154.56813592 6.00035079 165.91260904 10.88450438 175.3125 19.625 C183.91862975 28.77755069 186.95616252 38.88040229 189 51 C189.3403125 50.34773438 189.680625 49.69546875 190.03125 49.0234375 C194.37662472 41.18789478 198.97916515 36.32266318 207.4375 33.125 C215.84801037 30.74250048 222.15578214 31.79698382 230.125 35.375 C237.22523969 39.38817895 241.86752585 45.28610978 245.1875 52.625 C247.3446395 61.58542561 246.36643928 70.130311 241.78125 78.125 C238.20364387 83.37215565 233.72704359 87.2333974 228 90 C226.69546875 90.18304688 225.3909375 90.36609375 224.046875 90.5546875 C221.31062056 91.19359366 220.25829886 91.67581282 218.48779297 93.89794922 C217.06908632 96.46899524 215.83069922 99.07249861 214.625 101.75 C213.69170604 103.6719293 212.75023459 105.58990828 211.80078125 107.50390625 C211.10202881 108.91373779 211.10202881 108.91373779 210.38916016 110.35205078 C207.24036836 116.35412385 203.14950527 121.66393051 199 127 C197.96746094 128.34771484 197.96746094 128.34771484 196.9140625 129.72265625 C185.80754771 143.92406944 173.24332419 156.94151849 159 168 C158.31421875 168.54140625 157.6284375 169.0828125 156.921875 169.640625 C154.97835508 171.14171762 153.00341808 172.5799527 151 174 C150.28585937 174.51820313 149.57171875 175.03640625 148.8359375 175.5703125 C140.02691159 181.58282225 130.23074883 185.57136139 120.50634766 189.85864258 C118.28018034 190.87240959 116.11670293 191.95381164 113.94921875 193.0859375 C109.45660779 195.36206497 104.79528183 196.92342933 100 198.4375 C98.58605957 198.88536865 98.58605957 198.88536865 97.14355469 199.34228516 C65.43891488 209.06830594 33.78480019 211.7975151 2.16113281 200.75390625 C0.24726718 200.08625859 -1.67652575 199.44721928 -3.6015625 198.8125 C-23.69301543 191.77315883 -41.40445594 176.56310863 -50.90795898 157.47705078 C-63.64015416 130.52809679 -65.89598363 97.31838386 -55.79345703 69.00219727 C-55.51099121 68.25897217 -55.22852539 67.51574707 -54.9375 66.75 C-54.63440918 65.94425537 -54.33131836 65.13851074 -54.01904297 64.30834961 C-47.06235582 46.46057055 -21.01271546 0 0 0 Z " fill="#764ABC" transform="translate(127,216)"/>
<path d="M0 0 C10.80007588 1.55737771 29.7002315 4.90648585 36.96264648 13.2565918 C38.90044677 15.86594611 40.47729473 18.44149347 42.015625 21.30078125 C42.54414063 22.27724609 43.07265625 23.25371094 43.6171875 24.25976562 C44.15601563 25.26716797 44.69484375 26.27457031 45.25 27.3125 C45.80429687 28.33923828 46.35859375 29.36597656 46.9296875 30.42382812 C48.29094445 32.94684746 49.64754374 35.47225544 51 38 C51.64238653 36.57501154 52.28258623 35.14903713 52.921875 33.72265625 C53.27862305 32.92867432 53.63537109 32.13469238 54.00292969 31.31665039 C55.1749039 28.59361825 56.12843444 25.83258805 57 23 C61.64836739 24.56716386 65.25571235 27.09034343 69.1875 29.9375 C69.81591797 30.38029297 70.44433594 30.82308594 71.09179688 31.27929688 C73.98681176 33.35689579 76.00482282 35.00723424 78 38 C77.2331543 40.75561523 77.2331543 40.75561523 75.82421875 44.05859375 C75.07688477 45.84426758 75.07688477 45.84426758 74.31445312 47.66601562 C73.77271155 48.92342546 73.23038772 50.18058459 72.6875 51.4375 C71.6450247 53.89256579 70.60979312 56.35060016 69.57421875 58.80859375 C68.87171997 60.44526001 68.87171997 60.44526001 68.1550293 62.11499023 C66.1579315 66.69044482 66.1579315 66.69044482 66.73754883 71.45654297 C67.13997803 72.37580566 67.54240723 73.29506836 67.95703125 74.2421875 C68.4058667 75.2947876 68.85470215 76.3473877 69.31713867 77.43188477 C69.81060791 78.56811279 70.30407715 79.70434082 70.8125 80.875 C75.21339682 91.30646385 79.14121007 101.8101398 82.6875 112.5625 C82.90709381 113.22401062 83.12668762 113.88552124 83.35293579 114.56707764 C87 125.58123558 87 125.58123558 87 128 C99.04753272 123.99148299 110.87368567 119.95581706 122.234375 114.25 C125 113 125 113 128 113 C129.17180151 117.80537091 129.40042879 122.57755826 129.5625 127.5 C129.62501953 128.34175781 129.68753906 129.18351563 129.75195312 130.05078125 C129.90606027 135.98157144 129.90606027 135.98157144 127.63183594 138.5378418 C121.80434775 142.46536104 114.71408059 144.52610425 108.125 146.8125 C106.98546875 147.21919922 105.8459375 147.62589844 104.671875 148.04492188 C96.30825893 151 96.30825893 151 94 151 C94.15146484 151.81154541 94.30292969 152.62309082 94.45898438 153.45922852 C95.02305439 156.49804725 95.58148497 159.53783549 96.13623047 162.57836914 C96.49408732 164.53025012 96.85831893 166.4809589 97.22265625 168.43164062 C97.44824219 169.67236328 97.67382812 170.91308594 97.90625 172.19140625 C98.22045898 173.89598999 98.22045898 173.89598999 98.54101562 175.63500977 C99.0217002 179.1590925 99.20296483 182.44838605 99 186 C94.06605382 191.57430941 86.01099751 194.82928731 79 197 C78.34 197 77.68 197 77 197 C76.90203125 196.40058594 76.8040625 195.80117188 76.703125 195.18359375 C75.48200687 187.78319683 74.21464198 180.39091073 72.9375 173 C72.7631543 171.98478271 72.58880859 170.96956543 72.40917969 169.92358398 C72.24192383 168.95880127 72.07466797 167.99401855 71.90234375 167 C71.67792603 165.700625 71.67792603 165.700625 71.44897461 164.375 C71.04220301 162.22324682 70.5565918 160.11731563 70 158 C68.94147827 158.2333606 68.94147827 158.2333606 67.86157227 158.47143555 C64.43081903 159.22095872 60.99677377 159.95427847 57.5625 160.6875 C56.27529053 160.96948242 54.98808105 161.25146484 53.66186523 161.54199219 C46.52438095 163.0684264 39.49240071 164.24052612 32.21875 164.87890625 C15.0218023 165.89520602 15.0218023 165.89520602 1.29418945 175.1171875 C-0.89062983 178.23607534 -2.84422343 181.42968149 -4.68945312 184.75976562 C-6.63802222 188.09062814 -9.06483052 190.87916536 -11.625 193.75 C-12.50399688 194.7735452 -13.38160548 195.79828428 -14.2578125 196.82421875 C-15.1716542 197.88300311 -16.08572858 198.94158669 -17 200 C-18.63049728 201.89456368 -20.25984905 203.79010059 -21.88818359 205.68652344 C-22.9337385 206.90343406 -23.98084725 208.11901201 -25.02978516 209.33300781 C-27.4577279 212.15228846 -29.81807893 214.98511581 -32 218 C-10.5763166 238.37092255 19.29419977 261.57797366 49.984375 263.09765625 C55.82369631 262.90855906 60.09356622 261.42982533 64.75 257.9375 C71.04160559 249.72345937 74.41754428 240.00611022 75.2734375 229.7109375 C75.55568081 226.57574826 75.87210729 223.94172834 77 221 C80.04029153 218.68740502 83.35444785 217.99116471 87 217 C89.17760721 216.10963542 91.34452995 215.19269353 93.5 214.25 C98.75903614 212 98.75903614 212 101 212 C101.78353035 233.54708469 97.47236527 257.15816987 83.3125 274 C78.21998622 279.26303935 72.79195071 282.3687128 66 285 C65.33613281 285.26425781 64.67226563 285.52851563 63.98828125 285.80078125 C44.95687373 291.86936456 22.59422051 283.47325836 5.58837891 274.8737793 C-11.9340891 265.71873728 -27.55800548 253.8983004 -42.42016602 240.93408203 C-44.88017744 238.7901894 -47.28028304 236.81314464 -50 235 C-50.66902344 235.64324219 -51.33804688 236.28648437 -52.02734375 236.94921875 C-73.86082535 257.49320613 -100.64378408 277.25880608 -130 285 C-130.68328369 285.18183838 -131.36656738 285.36367676 -132.07055664 285.55102539 C-137.73196764 286.94856034 -143.11661026 287.35163015 -148.9375 287.3125 C-149.81704346 287.30686035 -150.69658691 287.3012207 -151.6027832 287.29541016 C-162.32635685 287.09444885 -169.41230064 284.39363645 -178 278 C-178.86625 277.4225 -179.7325 276.845 -180.625 276.25 C-193.46694269 264.08394903 -199.16239493 243.22674428 -200 226 C-200.06888621 221.66508926 -200.06030047 217.33493352 -200 213 C-195.08988919 213.8083719 -190.46097008 215.37839323 -185.75 216.9375 C-184.92242187 217.20240234 -184.09484375 217.46730469 -183.2421875 217.74023438 C-182.45585937 217.99998047 -181.66953125 218.25972656 -180.859375 218.52734375 C-179.78381348 218.87913696 -179.78381348 218.87913696 -178.68652344 219.23803711 C-177 220 -177 220 -176 222 C-175.6901399 224.1062112 -175.38383599 226.21304348 -175.10058594 228.32299805 C-173.45287418 240.31710043 -171.10890629 253.06745784 -161 261 C-149.42941655 265.8250444 -137.19954661 262.62186874 -126.015625 258.21875 C-105.55884971 249.78618614 -87.09734716 236.01797314 -71.14453125 220.8359375 C-69 219 -69 219 -67 219 C-67.58910156 218.31292969 -68.17820313 217.62585938 -68.78515625 216.91796875 C-69.53667969 216.01691406 -70.28820312 215.11585938 -71.0625 214.1875 C-71.81660156 213.29417969 -72.57070312 212.40085937 -73.34765625 211.48046875 C-73.89292969 210.66191406 -74.43820313 209.84335937 -75 209 C-74 206 -74 206 -72.20581055 204.80151367 C-69.70696604 203.58010773 -67.20514524 202.36977883 -64.6875 201.1875 C-63.81931641 200.75501953 -62.95113281 200.32253906 -62.05664062 199.87695312 C-61.21681641 199.47798828 -60.37699219 199.07902344 -59.51171875 198.66796875 C-58.74303467 198.29953857 -57.97435059 197.9311084 -57.18237305 197.55151367 C-54.37211839 196.84132626 -53.44823803 197.58124528 -51 199 C-47.87690547 199.34709273 -47.87690547 199.34709273 -45.9140625 196.98828125 C-45.15867187 196.10527344 -44.40328125 195.22226562 -43.625 194.3125 C-42.82191406 193.39210938 -42.01882813 192.47171875 -41.19140625 191.5234375 C-40.46824219 190.69070313 -39.74507812 189.85796875 -39 189 C-33.11844663 182.8168285 -26.61065242 177.22535352 -20.125 171.6875 C-3.71101044 157.24713644 10.58994676 139.85148698 20.421875 120.234375 C26.72887388 107.78890832 26.72887388 107.78890832 30.57421875 105.40234375 C33.125 104.75 33.125 104.75 35.6171875 104.39453125 C40.95896211 103.51007349 44.68215676 99.79157774 47.79296875 95.5625 C52.60888172 87.87534201 53.87009558 81.03656405 53 72 C51.04533575 64.6641215 46.37385969 57.80226371 39.9453125 53.68359375 C37.17795519 52.26858652 34.55335477 51.13462344 31.52734375 50.3984375 C27.63606935 48.24530576 26.54418572 44.92622964 24.6875 41 C19.79097204 31.1429118 14.11460698 21.85659554 8.27026367 12.546875 C7.6022876 11.47953125 6.93431152 10.4121875 6.24609375 9.3125 C5.64466553 8.35988281 5.0432373 7.40726563 4.42358398 6.42578125 C3 4 3 4 2 1 C1.01 0.505 1.01 0.505 0 0 Z M51 97 C50.6690332 97.62229492 50.33806641 98.24458984 49.99707031 98.88574219 C42.38089418 113.16934849 34.48297217 127.21256773 26 141 C29.88642166 142.42335937 33.03821919 141.63306166 37.03125 140.85546875 C37.70418091 140.72562088 38.37711182 140.59577301 39.07043457 140.46199036 C40.48998166 140.18604619 41.90871709 139.90589763 43.32666016 139.62182617 C45.49052446 139.18939362 47.65695201 138.77242517 49.82421875 138.35742188 C57.69115381 137.02171577 57.69115381 137.02171577 65 134 C63.6347278 129.85439789 62.26535956 125.71017744 60.89233398 121.56713867 C60.42671311 120.16027657 59.96217418 118.75305586 59.4987793 117.34545898 C58.82891897 115.31136211 58.15505699 113.27862685 57.48046875 111.24609375 C57.07723389 110.02591553 56.67399902 108.8057373 56.25854492 107.54858398 C54.98131871 103.94732636 53.54221832 100.49399653 52 97 C51.67 97 51.34 97 51 97 Z " fill="#61DAFA" transform="translate(319,200)"/>
<path d="M0 0 C-0.70640625 0.68320312 -1.4128125 1.36640625 -2.140625 2.0703125 C-4.15443304 4.07141067 -5.96054245 6.15178387 -7.734375 8.3671875 C-15.33631863 17.43728503 -15.33631863 17.43728503 -20.1171875 18.44726562 C-23.84110702 18.56322397 -27.4183993 18.04878524 -31.09375 17.5 C-37.54738046 16.6739353 -41.65162876 18.23872157 -46.75 22.0625 C-57.11415511 35.59348029 -58.24743512 52.29602772 -58.3125 68.75 C-58.31611542 69.45596313 -58.31973083 70.16192627 -58.32345581 70.88928223 C-58.34574149 81.81940659 -57.35291566 92.2365772 -55.5 103.02514648 C-53.40084911 115.6284859 -53.26361699 128.25052355 -53 141 C-52.23041531 171.906521 -42.84634804 204.34725406 -27.6171875 231.265625 C-21.18052615 242.81151162 -21.18052615 242.81151162 -23 249.5 C-24.0625 252.15625 -24.0625 252.15625 -25 254 C-25.66 254 -26.32 254 -27 254 C-29.97 248.06 -29.97 248.06 -33 242 C-35.23607941 245.35411912 -36.36487987 248.71852048 -37.6015625 252.51171875 C-37.9635524 253.60405571 -37.9635524 253.60405571 -38.33285522 254.71846008 C-39.10114575 257.04009724 -39.86314436 259.36374422 -40.625 261.6875 C-41.14541968 263.2638085 -41.66624823 264.83998208 -42.1875 266.41601562 C-43.46307943 270.27579532 -44.73302064 274.1373892 -46 278 C-45.23091309 278.12552246 -44.46182617 278.25104492 -43.66943359 278.38037109 C-36.96284582 279.48477737 -30.2895155 280.67566612 -23.62890625 282.03125 C-19.69328069 282.79803192 -16.00725598 283.13647002 -12 283 C-12 283.66 -12 284.32 -12 285 C-10.906875 285.144375 -9.81375 285.28875 -8.6875 285.4375 C-5 286 -5 286 -2 287 C4.7218048 287.75234879 9.84306142 286.66645303 15.96875 283.875 C18 283 18 283 20 283 C20.34417969 283.79921875 20.68835938 284.5984375 21.04296875 285.421875 C23.24818041 288.32694425 23.57339889 288.41564247 26.98828125 288.890625 C28.76097956 289.03756492 30.53627105 289.15480889 32.3125 289.25 C33.28131104 289.31880371 34.25012207 289.38760742 35.24829102 289.45849609 C51.46768843 290.4963206 67.75376664 290.68759686 84 291 C79.40752162 296.82661345 74.39021021 301.00468407 68.375 305.3125 C67.1065625 306.2415918 67.1065625 306.2415918 65.8125 307.18945312 C60.01408402 311.40107861 56.03765012 314.14971847 48.75 314.625 C47.67234375 314.69976562 46.5946875 314.77453125 45.484375 314.8515625 C44.66453125 314.90054687 43.8446875 314.94953125 43 315 C43.99 316.32 44.98 317.64 46 319 C39.65231157 323.15041167 33.07324871 327.21261606 26 330 C23 329 23 329 22.08496094 327.42114258 C21.80426758 326.75236084 21.52357422 326.0835791 21.234375 325.39453125 C18.18346678 319.42254069 14.65990551 313.73383206 8.08319092 311.2868042 C-1.5780778 308.57971909 -11.78805198 307.82185107 -21.73802185 306.81019592 C-29.0942163 306.05189967 -36.21658831 304.73975329 -43.4375 303.125 C-44.43048096 302.90875977 -45.42346191 302.69251953 -46.4465332 302.46972656 C-48.63325143 301.98986617 -50.81707236 301.49681938 -53 301 C-53.04825928 301.56380371 -53.09651855 302.12760742 -53.14624023 302.70849609 C-53.82403565 310.06342263 -54.91187536 317.33093425 -56.0625 324.625 C-56.24876953 325.81996094 -56.43503906 327.01492188 -56.62695312 328.24609375 C-57.08221668 331.16444988 -57.53994819 334.08239555 -58 337 C-63.97089723 336.53104679 -68.25786777 335.27792573 -73.5 332.4375 C-74.44746094 331.9434668 -74.44746094 331.9434668 -75.4140625 331.43945312 C-76.94853126 330.63734445 -78.47515098 329.82024884 -80 329 C-80.23179063 321.80701325 -79.36804033 315.19027706 -78.0625 308.125 C-77.88009766 307.09375 -77.69769531 306.0625 -77.50976562 305 C-76.15977502 297.47932505 -76.15977502 297.47932505 -75 294 C-75.61101562 293.88785156 -76.22203125 293.77570313 -76.8515625 293.66015625 C-84.433437 292.02631569 -91.39881827 289.3784966 -98.5625 286.4375 C-99.53848145 286.03732666 -100.51446289 285.63715332 -101.52001953 285.22485352 C-105.24750554 283.67026991 -108.6299124 282.24672507 -112 280 C-112.96876372 276.70009434 -113.11974289 273.56014732 -113.09765625 270.13671875 C-113.09282227 268.80737305 -113.09282227 268.80737305 -113.08789062 267.45117188 C-113.07532227 266.0831543 -113.07532227 266.0831543 -113.0625 264.6875 C-113.05798828 263.75615234 -113.05347656 262.82480469 -113.04882812 261.86523438 C-113.03709234 259.57675627 -113.02067363 257.28841192 -113 255 C-109.74199757 255 -108.2410813 255.63662861 -105.30859375 256.9765625 C-104.37152588 257.39760254 -103.43445801 257.81864258 -102.46899414 258.25244141 C-100.96840454 258.93185791 -100.96840454 258.93185791 -99.4375 259.625 C-89.46099136 264.06618087 -79.43370563 267.79564097 -69 271 C-68.83129395 270.34878174 -68.66258789 269.69756348 -68.48876953 269.02661133 C-66.57372861 261.80331237 -64.31834971 254.74779046 -61.875 247.6875 C-61.49625732 246.55449463 -61.11751465 245.42148926 -60.72729492 244.25415039 C-58.83275632 238.71020977 -56.83274094 233.46359863 -54.05859375 228.296875 C-48.49328399 217.74746482 -48.49328399 217.74746482 -49.27734375 206.19921875 C-51.29069226 200.83507376 -53.82515033 195.73830932 -56.35253906 190.6015625 C-59.14608172 184.49451726 -61.257886 178.15945172 -63.39367676 171.79827881 C-64.11585783 169.65216786 -64.85265357 167.5115641 -65.59277344 165.37158203 C-69 155.41811581 -69 155.41811581 -69 152 C-116.00589793 167.42581354 -116.00589793 167.42581354 -150.98828125 200.90625 C-153.63360461 206.38074159 -154.54854217 211.03737118 -153.0625 217 C-150.66383174 223.72873173 -146.68132568 228.90699711 -141.0625 233.29296875 C-133.25068541 239.40093092 -133.25068541 239.40093092 -132.484375 244.2890625 C-132.75893297 247.93099319 -133.33157398 251.41059089 -134 255 C-134.2154423 257.45604227 -134.40454126 259.91459189 -134.5625 262.375 C-134.70793794 264.25003071 -134.85361631 266.12504289 -135 268 C-153.40098986 258.95852597 -169.57149599 243.0308595 -176.2734375 223.5078125 C-179.68453816 211.73401343 -177.95668356 200.44490864 -172.5 189.5 C-168.61817433 182.83171531 -163.4350896 177.40455539 -158 172 C-156.80890625 170.80890625 -156.80890625 170.80890625 -155.59375 169.59375 C-134.98962752 150.08851406 -105.87153222 137.13779593 -78.86987305 129.59570312 C-77.00669833 129.1597324 -77.00669833 129.1597324 -76 128 C-76.21013542 126.11107555 -76.21013542 126.11107555 -76.70703125 123.87109375 C-76.88065186 123.00887207 -77.05427246 122.14665039 -77.2331543 121.25830078 C-77.42433838 120.32743652 -77.61552246 119.39657227 -77.8125 118.4375 C-84.69972585 83.57331769 -88.50938553 42.64635294 -69 11 C-62.38069147 1.49637431 -53.55620188 -4.10170689 -42.26171875 -6.53125 C-27.53825728 -8.64719656 -13.46901928 -6.11381751 0 0 Z " fill="#61D9FA" transform="translate(201,57)"/>
<path d="M0 0 C8.4274113 7.41514627 15.8456948 15.4941932 22.69921875 24.375 C23.2921875 25.11621094 23.88515625 25.85742188 24.49609375 26.62109375 C41.67912512 49.36102288 50.14648963 82.28631105 50.69921875 110.375 C41.60347749 108.00471149 32.65529106 105.21801919 23.69921875 102.375 C23.60946777 101.83311035 23.5197168 101.2912207 23.42724609 100.73291016 C20.19541245 81.61961253 15.19429819 64.33793236 5.69921875 47.375 C5.31749512 46.69131348 4.93577148 46.00762695 4.54248047 45.30322266 C-5.13039434 28.27753526 -17.67940459 15.90629607 -36.48828125 9.375 C-58.33631939 3.64436705 -82.678198 9.19422627 -102.0078125 20.44140625 C-124.110469 34.31220777 -137.90517487 64.20891515 -143.91015625 88.87841797 C-145.22275413 94.67979019 -146.29749468 100.51329819 -147.30078125 106.375 C-147.64109375 108.25058594 -147.64109375 108.25058594 -147.98828125 110.1640625 C-150.75192238 127.47520345 -149.80751226 144.8389058 -146.70654297 162.01806641 C-146.31131673 164.31380294 -145.98455781 166.60866377 -145.6796875 168.91796875 C-143.08938784 187.83976668 -135.64766799 205.31049608 -127.30078125 222.375 C-126.90947021 223.21788574 -126.51815918 224.06077148 -126.11499023 224.92919922 C-124.97068537 227.23322656 -123.85840394 229.32743312 -122.30078125 231.375 C-119.56014197 232.47999679 -119.56014197 232.47999679 -116.61328125 232.125 C-108.83274336 232.20165555 -103.39841128 234.75922353 -97.48828125 239.75 C-90.93698263 247.61155835 -87.74668306 253.99681298 -87.9921875 264.5390625 C-88.90604924 272.93733617 -92.99180027 279.84664344 -99.30078125 285.375 C-101.86701339 287.0428027 -104.45599318 288.26054694 -107.30078125 289.375 C-108.24953125 289.7875 -109.19828125 290.2 -110.17578125 290.625 C-118.5498315 292.63477206 -125.77431932 291.53857468 -133.30078125 287.375 C-139.8936034 282.91820604 -144.54717024 277.0491044 -146.9140625 269.390625 C-148.09089415 263.2568358 -147.62944261 258.01083015 -145.30078125 252.25 C-143.70660684 246.91363214 -145.08995725 243.54596745 -147.61328125 238.8125 C-148.76623306 236.70855689 -149.93727548 234.61615478 -151.11914062 232.52832031 C-162.03285462 212.64010596 -169.13844001 189.58624361 -172.98828125 167.3125 C-173.1078418 166.62905518 -173.22740234 165.94561035 -173.35058594 165.24145508 C-180.78149083 119.16446002 -173.70490079 67.01247672 -146.30078125 28.375 C-143.51181661 24.79057414 -140.52278874 21.57131365 -137.30078125 18.375 C-136.24374908 17.29529054 -135.18783543 16.21448534 -134.1328125 15.1328125 C-131.36866763 12.31414643 -128.56800519 9.53649557 -125.74023438 6.78173828 C-124.56706533 5.63523217 -123.40829976 4.47400247 -122.25390625 3.30859375 C-89.81068647 -27.6273083 -34.03966458 -27.34567196 0 0 Z " fill="#764ABC" transform="translate(322.30078125,53.625)"/>
<path d="M0 0 C4.00926244 3.16082931 5.37208541 5.63412596 6.8203125 10.609375 C7.40820557 10.60413818 7.99609863 10.59890137 8.60180664 10.59350586 C34.70241302 10.39243829 61.02566685 11.78848858 85.80761719 20.87304688 C88.07622241 21.70299755 90.35831159 22.48980981 92.640625 23.28125 C111.31399563 29.92200156 128.8745237 38.82232396 144.8203125 50.609375 C145.78324219 51.23585937 146.74617187 51.86234375 147.73828125 52.5078125 C151.22076704 54.88243525 154.38525599 57.4805589 157.5703125 60.234375 C158.18156982 60.76216553 158.79282715 61.28995605 159.42260742 61.83374023 C168.45161193 69.70290408 176.50628363 78.1161663 183.8203125 87.609375 C184.42359375 88.39006348 184.42359375 88.39006348 185.0390625 89.18652344 C202.39864877 111.87604518 211.58169181 137.06348883 212.8203125 165.609375 C212.88605469 166.79402344 212.95179688 167.97867188 213.01953125 169.19921875 C213.77440011 193.17281256 205.6525573 214.61356357 189.29907227 232.17089844 C174.65857757 247.27440218 157.51435241 255.08559646 137.8203125 261.609375 C136.98113281 261.92777344 136.14195312 262.24617188 135.27734375 262.57421875 C103.35610778 274.61205821 65.49870935 263.6032845 35.8203125 250.609375 C39.47743908 246.84990346 43.29868365 243.41067361 47.3203125 240.046875 C47.87589844 239.57830078 48.43148437 239.10972656 49.00390625 238.62695312 C50.09396864 237.71001829 51.18889972 236.7988343 52.2890625 235.89404297 C53.70189445 234.70872382 55.06104881 233.46019905 56.4140625 232.20703125 C58.8203125 230.609375 58.8203125 230.609375 61.0625 230.6796875 C62.42761719 231.13988281 62.42761719 231.13988281 63.8203125 231.609375 C65.21830981 232.04568377 66.61680177 232.48040895 68.015625 232.9140625 C68.80428955 233.16655762 69.5929541 233.41905273 70.40551758 233.67919922 C96.13191781 241.83508386 124.5772981 244.68301345 149.54296875 232.25390625 C166.28440993 222.4981024 178.73157935 205.84988358 184.8203125 187.609375 C185.6003272 184.6186004 186.22332003 181.64408673 186.8203125 178.609375 C187.1503125 178.279375 187.4803125 177.949375 187.8203125 177.609375 C188.787097 164.68208508 187.32280615 153.71582907 182.8203125 141.609375 C182.56862305 140.91102539 182.31693359 140.21267578 182.05761719 139.49316406 C168.6162524 102.68580415 139.92926112 74.28420534 104.82861328 57.57080078 C102.90912776 56.65189317 101.00277707 55.70997122 99.09765625 54.76171875 C90.2883388 50.43936812 81.27473453 47.20583312 71.91577148 44.27612305 C70.24970051 43.74600073 68.59565182 43.17812714 66.9465332 42.59741211 C52.44897561 38.01548196 35.51115349 37.22597804 20.3828125 36.859375 C19.30676758 36.80765137 18.23072266 36.75592773 17.12207031 36.70263672 C11.54284921 36.59396312 11.54284921 36.59396312 6.91577148 39.32470703 C5.41536358 41.35881707 4.12184123 43.4449024 2.8203125 45.609375 C-3.64550842 51.66596675 -10.34120161 54.45480688 -19.1796875 54.609375 C-27.90370613 53.99307855 -34.35515786 50.43390464 -40.4921875 44.296875 C-45.60212606 36.15882469 -48.14738406 28.23104363 -47.1796875 18.609375 C-45.14706136 10.47887043 -40.83509464 3.77064809 -33.8671875 -0.9609375 C-22.71443692 -7.38110642 -10.99243082 -7.01309207 0 0 Z " fill="#764ABC" transform="translate(259.1796875,159.390625)"/>
<path d="M0 0 C9.03893766 8.40486293 14.6402373 18.85928006 15.5546875 31.17578125 C15.96993149 43.86667566 13.4128769 54.86280068 5.3046875 64.80859375 C4.75296875 65.49566406 4.20125 66.18273437 3.6328125 66.890625 C-4.62457993 76.11843748 -16.57976697 80.93656396 -28.734375 81.984375 C-40.11372306 82.41506746 -50.58813701 78.43199411 -59.6953125 71.80859375 C-60.4996875 71.27234375 -61.3040625 70.73609375 -62.1328125 70.18359375 C-70.42566069 62.49753933 -76.20099084 51.45842405 -76.93359375 40.12109375 C-77.2784001 26.76373046 -74.86823028 16.65342696 -66.6953125 5.80859375 C-65.8290625 4.50921875 -65.8290625 4.50921875 -64.9453125 3.18359375 C-47.58931421 -15.13662667 -19.19995089 -15.61039486 0 0 Z " fill="#61DAFB" transform="translate(299.6953125,233.19140625)"/>
</svg>
